<svg width="330" viewBox="147 11 961 206" fill="none" xmlns="http://www.w3.org/2000/svg">
 <g transform="translate(0.000000,247.000000) scale(0.100000,-0.100000)">
  <path d="M5340 2311 c-8 -6 -18 -7 -22 -5 -4 3 -8 0 -8 -7 0 -7 -3 -10 -6 -7
-8 8 -75 -63 -68 -73 3 -5 1 -9 -3 -9 -7 0 -9 -84 -3 -100 1 -3 2 -9 1 -13 -1
-4 6 -10 14 -13 8 -4 15 -12 15 -20 0 -8 6 -14 14 -14 8 0 16 -5 18 -11 2 -5
11 -11 20 -13 10 -1 21 -5 24 -9 12 -11 74 -8 74 4 0 6 6 9 14 6 8 -3 17 1 20
9 3 9 10 13 15 10 5 -3 14 1 21 9 7 8 9 15 4 15 -5 0 -2 6 7 13 9 7 17 15 17
20 1 4 3 8 3 10 6 12 2 107 -4 107 -4 0 -5 5 -2 10 3 6 2 10 -2 10 -5 0 -13
10 -18 23 -6 12 -13 20 -16 17 -3 -3 -13 3 -23 13 -10 9 -21 15 -26 12 -5 -3
-11 -1 -15 5 -8 12 -45 13 -65 1z M7565 2298 c-3 -7 -4 -321 -3 -698 l3 -685
3 693 2 692 115 0 115 0 1 -257 c1 -142 1 -262 0 -267 -1 -5 5 -4 13 4 18 14
22 25 6 15 -6 -4 -11 86 -12 252 l-3 258 -118 3 c-88 2 -119 -1 -122 -10z
M9923 2303 c9 -2 23 -2 30 0 6 3 -1 5 -18 5 -16 0 -22 -2 -12 -5z M10040 2300
c18 -12 30 -13 30 -2 0 4 -10 9 -22 9 -18 2 -20 0 -8 -7z M9880 2290 c8 -5 22
-9 30 -9 10 0 8 3 -5 9 -27 12 -43 12 -25 0z M9855 2280 c3 -6 -1 -10 -9 -10
-26 0 -30 -2 -43 -19 -7 -9 -13 -12 -13 -7 0 5 -9 1 -20 -9 -11 -10 -17 -21
-15 -25 3 -4 -2 -10 -10 -14 -9 -3 -12 -12 -8 -22 5 -12 3 -15 -6 -9 -10 6
-11 2 -6 -15 5 -17 4 -21 -6 -15 -9 6 -11 2 -6 -16 4 -13 7 -42 7 -64 0 -45
15 -59 75 -71 29 -5 36 -4 30 6 -5 9 -2 10 15 5 17 -5 21 -4 15 6 -6 9 -3 11
8 6 10 -3 17 -2 17 4 0 6 5 7 10 4 6 -3 10 -1 10 6 0 7 3 9 7 6 9 -9 64 44 57
55 -3 4 0 8 6 8 6 0 8 5 5 10 -3 6 -18 -4 -32 -20 -27 -32 -81 -65 -91 -56 -3
3 0 6 6 6 8 0 6 12 -5 35 -13 27 -19 32 -30 23 -11 -8 -12 -7 -7 6 5 12 2 15
-10 10 -9 -3 -13 -10 -10 -15 3 -5 -2 -12 -10 -15 -9 -3 -13 -10 -10 -15 3 -5
0 -9 -6 -9 -6 0 -8 -4 -5 -10 3 -5 1 -10 -5 -10 -6 0 -8 -4 -5 -10 3 -5 2 -10
-4 -10 -5 0 -13 5 -16 10 -3 6 -1 10 5 10 6 0 8 5 5 10 -3 6 -1 10 5 10 6 0 8
5 5 10 -3 6 4 14 17 19 13 6 17 10 8 11 -12 0 -11 4 4 15 11 8 30 13 43 11 14
-3 22 0 20 7 -1 7 5 11 13 9 8 -2 12 0 7 4 -4 4 3 19 15 32 26 28 5 20 -29
-11 -13 -11 -23 -17 -23 -13 0 5 -8 2 -17 -5 -15 -11 -15 -10 1 8 10 13 23 20
29 16 6 -4 7 -1 2 7 -5 7 -4 11 1 8 5 -3 18 6 28 20 21 28 6 22 -31 -11 -13
-11 -38 -21 -58 -22 l-34 -1 17 31 c10 16 39 42 66 56 36 20 44 28 31 32 -9 4
-14 3 -10 -3z M9990 2195 c0 -5 5 -17 10 -25 5 -8 10 -10 10 -5 0 6 -5 17 -10
25 -5 8 -10 11 -10 5z M5817 2173 c-4 -3 -7 -65 -7 -137 l0 -131 -71 2 c-40 0
-77 -4 -83 -9 -6 -6 -12 -53 -14 -104 l-3 -94 88 0 88 0 -3 -247 c-1 -136 0
-254 4 -262 4 -9 6 -24 5 -33 -1 -10 2 -18 8 -18 6 0 8 -7 5 -15 -4 -8 -1 -15
5 -15 6 0 10 -3 9 -7 -4 -14 13 -53 23 -53 5 0 8 -4 6 -8 -2 -9 68 -82 79 -82
3 0 12 -7 21 -15 8 -8 19 -13 24 -10 5 4 9 1 9 -5 0 -6 4 -9 9 -5 5 3 12 1 16
-4 6 -11 7 -11 125 -12 73 0 118 4 128 11 1 2 7 4 12 5 6 1 12 4 15 5 3 1 8 3
13 4 29 7 52 19 52 27 0 6 4 8 9 5 10 -7 9 20 -1 30 -4 3 -4 12 -1 20 3 8 0
14 -7 14 -6 0 -8 4 -5 10 3 5 -1 23 -10 40 -8 16 -12 30 -8 30 4 0 2 5 -4 11
-6 6 -9 17 -7 24 3 7 1 16 -5 20 -6 3 -11 1 -11 -6 0 -7 -3 -9 -6 -6 -4 3 -16
1 -28 -5 -36 -20 -122 -32 -141 -20 -5 4 -15 7 -21 8 -14 2 -44 33 -60 61 -8
13 -12 100 -13 261 l-2 242 144 0 145 0 1 88 c3 131 12 124 -145 121 -73 -2
-136 -1 -138 2 -3 2 -6 64 -7 137 l-2 132 -117 0 c-64 0 -120 -3 -123 -7z
M9703 2045 c0 -27 2 -38 4 -22 2 15 2 37 0 50 -2 12 -4 0 -4 -28z M1917 1929
c-10 -6 -29 -8 -42 -5 -13 3 -27 1 -30 -4 -4 -6 -15 -8 -26 -5 -11 4 -19 2
-19 -5 0 -7 -7 -10 -15 -6 -8 3 -15 1 -15 -5 0 -6 -7 -9 -15 -5 -8 3 -15 1
-15 -5 0 -6 -4 -7 -10 -4 -5 3 -10 1 -10 -5 0 -6 -4 -8 -10 -5 -5 3 -10 1 -10
-5 0 -6 -4 -9 -9 -5 -6 3 -13 -1 -18 -8 -4 -7 -16 -16 -26 -20 -9 -4 -20 -15
-24 -24 -3 -10 -17 -29 -30 -42 -13 -14 -22 -30 -19 -38 3 -7 1 -13 -5 -13 -6
0 -8 -9 -4 -20 4 -11 2 -20 -4 -20 -7 0 -11 -24 -11 -60 0 -33 4 -60 10 -60 5
0 7 -7 4 -15 -4 -8 -1 -15 6 -15 6 0 8 -4 5 -10 -3 -5 -1 -10 5 -10 6 0 8 -4
5 -10 -3 -5 -1 -10 4 -10 6 0 11 -6 11 -13 0 -16 42 -57 58 -57 7 0 12 -4 12
-8 0 -8 52 -32 84 -38 11 -3 25 -9 33 -15 7 -6 13 -8 13 -4 0 4 6 2 13 -4 8
-6 17 -8 20 -4 4 3 12 1 19 -4 7 -6 20 -11 28 -11 8 -1 29 -4 45 -7 39 -7 86
-15 105 -16 8 -1 20 -6 27 -11 7 -5 17 -7 22 -4 5 4 12 2 16 -4 4 -6 10 -8 15
-5 5 3 11 1 15 -5 4 -6 10 -8 15 -5 13 8 39 -41 42 -80 1 -26 -3 -40 -14 -46
-10 -5 -24 -16 -33 -25 -8 -8 -15 -12 -15 -8 0 3 -6 2 -12 -3 -16 -12 -48 -16
-108 -15 -45 0 -121 8 -130 12 -3 2 -9 4 -15 5 -5 2 -13 4 -17 5 -5 1 -11 3
-15 4 -5 1 -18 7 -30 14 -13 7 -23 10 -23 7 0 -3 -10 3 -22 14 -11 11 -24 18
-28 16 -5 -3 -10 2 -14 10 -3 8 -11 15 -18 15 -7 0 -19 9 -26 20 -12 20 -12
20 -37 -2 -13 -11 -22 -25 -19 -29 2 -4 -5 -13 -16 -19 -11 -6 -20 -17 -20
-25 0 -8 -5 -15 -10 -15 -6 0 -15 -11 -20 -25 -5 -14 -14 -25 -20 -25 -6 0 -3
-11 6 -25 9 -14 23 -25 30 -25 8 0 17 -7 20 -15 4 -8 12 -15 20 -15 8 0 14 -4
14 -9 0 -7 53 -35 70 -36 3 0 15 -6 28 -13 12 -7 22 -10 22 -6 0 3 6 1 13 -5
8 -6 17 -8 20 -4 4 3 12 1 19 -4 7 -6 20 -11 28 -11 8 0 42 -4 75 -8 33 -4 78
-8 100 -8 53 1 186 17 193 24 1 1 7 4 12 5 6 1 13 4 18 5 4 1 10 2 15 1 4 0 7
4 7 9 0 5 3 9 8 8 13 -4 52 13 52 23 0 5 4 9 8 9 5 0 28 18 51 40 23 22 39 40
36 40 -4 0 1 7 9 16 9 8 14 20 11 25 -4 5 -2 9 4 9 6 0 8 7 5 15 -4 8 -2 15 2
15 5 0 9 34 9 75 1 41 -3 75 -7 75 -4 0 -5 7 -2 15 4 8 1 15 -6 15 -6 0 -9 4
-5 9 3 5 -2 16 -10 24 -8 9 -15 20 -15 25 0 13 -36 43 -43 36 -4 -4 -9 1 -13
10 -3 9 -10 13 -15 10 -5 -3 -9 -1 -9 5 0 10 -38 27 -52 23 -5 -1 -8 3 -8 9 0
5 -4 7 -10 4 -5 -3 -10 -1 -10 5 0 7 -7 10 -15 7 -8 -4 -17 -2 -21 4 -3 6 -12
8 -20 5 -8 -3 -14 0 -14 5 0 6 -9 9 -20 6 -11 -3 -23 -1 -26 5 -3 5 -17 7 -30
4 -15 -4 -24 -2 -24 5 0 7 -9 9 -25 5 -16 -4 -25 -2 -25 5 0 7 -9 9 -25 5 -15
-4 -25 -2 -25 4 0 7 -8 9 -20 5 -12 -4 -20 -2 -20 5 0 7 -8 9 -20 5 -12 -4
-20 -2 -20 5 0 6 -4 8 -10 5 -5 -3 -10 -1 -10 6 0 7 -3 10 -6 6 -9 -8 -54 47
-54 66 0 17 55 76 73 78 7 1 17 1 24 0 6 -1 14 3 18 9 8 13 132 13 140 -1 4
-6 14 -8 22 -5 9 4 22 1 29 -5 7 -6 18 -8 23 -5 5 4 12 2 16 -4 4 -6 10 -8 15
-5 5 3 11 1 15 -5 4 -6 11 -8 16 -5 5 4 9 1 9 -5 0 -6 5 -8 10 -5 6 3 10 1 10
-5 0 -6 5 -8 10 -5 6 3 10 1 10 -4 0 -6 5 -11 11 -11 7 0 17 -7 24 -17 12 -16
40 -9 30 8 -4 5 1 12 9 15 9 3 16 12 16 19 0 7 7 16 16 19 8 3 12 10 9 16 -3
6 1 13 9 16 9 3 16 12 16 19 0 7 5 15 12 17 6 2 12 12 14 21 1 9 -2 15 -7 11
-5 -3 -12 2 -15 10 -3 9 -12 16 -20 16 -8 0 -14 5 -14 11 0 5 -4 7 -10 4 -5
-3 -10 -1 -10 5 0 6 -4 8 -10 5 -5 -3 -10 -1 -10 5 0 6 -4 8 -10 5 -5 -3 -10
-1 -10 5 0 6 -4 8 -10 5 -5 -3 -10 -1 -10 5 0 6 -4 9 -9 5 -5 -3 -12 -1 -16 5
-4 6 -10 8 -15 5 -5 -3 -11 -1 -15 4 -3 6 -12 8 -20 4 -8 -3 -15 0 -15 7 0 7
-8 9 -20 5 -11 -3 -25 -3 -32 2 -7 4 -29 9 -48 10 -19 1 -57 4 -85 7 -30 4
-57 2 -68 -5z M2964 1919 c-4 -6 -20 -8 -40 -4 -22 4 -34 2 -34 -5 0 -7 -8 -9
-19 -5 -11 3 -22 1 -25 -4 -4 -6 -13 -8 -21 -4 -8 3 -15 0 -15 -7 0 -6 -4 -9
-9 -5 -5 3 -12 1 -16 -5 -4 -6 -11 -8 -16 -5 -5 4 -9 1 -9 -5 0 -6 -4 -8 -10
-5 -5 3 -10 1 -10 -5 0 -6 -4 -8 -10 -5 -5 3 -10 1 -10 -5 0 -6 -4 -8 -10 -5
-5 3 -10 1 -10 -5 0 -6 -4 -9 -9 -5 -6 3 -13 -1 -18 -9 -4 -8 -10 -14 -13 -13
-3 1 -16 -8 -29 -20 -21 -20 -22 -23 -8 -29 9 -3 14 -10 11 -15 -3 -5 0 -9 5
-9 6 0 11 -7 11 -15 0 -8 5 -15 10 -15 6 0 10 -7 10 -15 0 -8 5 -15 10 -15 6
0 10 -7 10 -15 0 -8 5 -15 10 -15 6 0 10 -7 10 -16 0 -13 3 -14 13 -5 8 6 17
8 20 4 4 -3 7 -1 7 5 0 7 7 12 15 12 8 0 15 5 15 11 0 5 5 7 10 4 6 -3 10 -1
10 5 0 6 4 9 9 6 5 -4 11 -2 13 4 1 5 14 11 28 14 14 2 27 6 30 7 3 1 10 3 15
4 6 2 12 4 15 5 15 7 192 5 196 -2 3 -4 9 -6 14 -3 5 3 11 1 15 -5 4 -6 11 -8
16 -5 5 4 9 1 9 -4 0 -6 3 -10 8 -9 10 4 61 -49 54 -56 -3 -3 0 -6 6 -6 7 0
11 -3 11 -7 -1 -5 0 -10 1 -13 5 -13 9 -86 5 -99 -4 -10 -9 -11 -19 -2 -7 6
-21 9 -30 5 -9 -4 -16 -1 -16 6 0 8 -8 10 -24 6 -12 -3 -26 -2 -30 2 -7 7
-127 14 -171 10 -11 0 -41 -1 -67 0 -27 0 -48 -4 -48 -9 0 -6 -9 -8 -19 -4
-11 3 -22 1 -25 -4 -4 -6 -13 -8 -21 -4 -8 3 -15 0 -15 -6 0 -6 -6 -8 -14 -5
-7 3 -21 -2 -30 -11 -9 -9 -16 -13 -16 -8 0 4 -7 -1 -15 -11 -8 -11 -15 -16
-15 -11 0 5 -16 -6 -35 -25 -19 -19 -35 -40 -35 -47 0 -7 -5 -13 -11 -13 -5 0
-7 -4 -4 -10 3 -5 1 -10 -5 -10 -6 0 -9 -4 -6 -8 3 -5 -1 -20 -8 -33 -15 -29
-18 -158 -4 -176 5 -7 7 -17 3 -23 -3 -5 -1 -10 5 -10 6 0 9 -4 5 -9 -3 -5 2
-16 10 -24 8 -9 15 -18 15 -20 0 -9 72 -77 81 -77 5 0 9 -4 9 -9 0 -7 50 -33
73 -37 4 -1 10 -3 15 -4 4 -1 11 -2 16 -1 4 1 13 -2 20 -7 14 -12 208 -12 222
0 7 5 16 8 20 7 5 -1 12 0 17 1 4 1 10 3 15 4 22 4 72 30 72 37 0 5 7 9 15 9
8 0 15 5 15 10 0 6 6 10 14 10 8 0 22 10 30 22 15 22 16 20 16 -29 0 -34 5
-53 14 -56 17 -7 204 -7 221 -1 16 6 11 657 -5 702 -2 4 -4 12 -5 17 -2 6 -4
13 -5 18 -1 4 -4 10 -5 15 -11 37 -29 72 -36 72 -5 0 -9 6 -9 13 0 17 -64 79
-73 71 -4 -4 -9 1 -13 10 -3 9 -10 13 -15 10 -5 -3 -9 0 -9 6 0 6 -4 8 -10 5
-5 -3 -10 -1 -10 5 0 6 -4 8 -10 5 -5 -3 -10 -1 -10 5 0 6 -4 9 -9 5 -5 -3
-12 -1 -16 5 -4 6 -10 8 -15 5 -5 -3 -11 -1 -15 4 -3 6 -12 8 -19 5 -8 -3 -17
-1 -20 5 -4 6 -20 8 -35 5 -16 -4 -32 -1 -35 5 -9 14 -133 14 -142 0z m166
-565 c38 -3 82 -10 90 -14 3 -1 12 -3 20 -4 11 -1 14 -12 13 -41 -1 -22 -3
-48 -3 -57 -1 -10 -6 -18 -11 -18 -6 0 -8 -4 -5 -9 3 -5 -1 -12 -10 -15 -9 -4
-14 -9 -10 -13 8 -9 -24 -43 -41 -43 -7 0 -13 -5 -13 -11 0 -5 -4 -7 -10 -4
-5 3 -10 1 -10 -4 0 -6 -3 -10 -7 -10 -5 1 -11 0 -15 -1 -5 -1 -12 -4 -18 -5
-5 -1 -11 -3 -12 -4 -23 -18 -137 -19 -195 -2 -2 1 -5 0 -7 -1 -2 -2 -12 4
-22 13 -11 9 -27 19 -36 22 -10 4 -18 13 -18 22 0 8 -3 15 -7 15 -5 0 -8 23
-8 50 0 28 4 50 9 50 5 0 7 3 4 6 -12 11 62 71 75 62 2 -2 11 3 20 10 9 8 20
11 25 8 5 -3 22 -1 38 4 16 5 52 7 79 3 28 -3 66 -7 85 -9z M6967 1923 c18 -2
50 -2 70 0 21 2 7 4 -32 4 -38 0 -55 -2 -38 -4z M8083 1923 c15 -2 37 -2 50 0
12 2 0 4 -28 4 -27 0 -38 -2 -22 -4z M9078 1923 c18 -2 45 -2 60 0 15 2 0 4
-33 4 -33 0 -45 -2 -27 -4z M10638 1923 c12 -2 32 -2 45 0 12 2 2 4 -23 4 -25
0 -35 -2 -22 -4z M6855 1910 c-14 -7 -8 -8 20 -3 22 3 42 7 44 9 9 8 -45 2
-64 -6z M7098 1913 c6 -2 18 -2 25 0 6 3 1 5 -13 5 -14 0 -19 -2 -12 -5z
M8018 1913 c6 -2 18 -2 25 0 6 3 1 5 -13 5 -14 0 -19 -2 -12 -5z M8205 1905
c28 -7 51 -12 53 -10 6 5 -61 25 -82 24 -12 0 2 -6 29 -14z M8940 1910 c-17
-6 -9 -7 25 -3 28 3 52 7 54 9 8 7 -54 2 -79 -6z M9193 1913 c9 -2 23 -2 30 0
6 3 -1 5 -18 5 -16 0 -22 -2 -12 -5z M10545 1910 c-14 -7 -8 -8 20 -3 22 3 42
7 44 9 9 8 -45 2 -64 -6z M10711 1916 c2 -2 22 -6 44 -9 28 -5 34 -4 20 3 -19
8 -73 14 -64 6z M3566 1903 c-7 -7 6 -43 16 -43 6 0 8 -6 5 -14 -3 -8 -3 -17
1 -21 4 -4 8 -11 8 -16 1 -5 3 -11 4 -14 1 -3 4 -9 5 -15 1 -5 3 -11 4 -12 2
-2 5 -14 7 -28 3 -14 9 -26 14 -28 5 -2 6 -10 3 -18 -3 -8 0 -14 6 -14 6 0 8
-7 5 -15 -4 -8 -1 -15 5 -15 6 0 8 -7 5 -15 -4 -8 -1 -15 5 -15 6 0 8 -7 5
-15 -4 -8 -1 -15 5 -15 6 0 8 -7 5 -15 -4 -8 -1 -15 5 -15 6 0 8 -7 5 -15 -4
-8 -1 -15 6 -15 6 0 9 -4 5 -9 -3 -5 -1 -12 4 -16 6 -3 8 -12 4 -20 -3 -8 0
-15 7 -15 6 0 9 -4 5 -9 -3 -5 -1 -12 4 -16 6 -3 8 -12 4 -20 -3 -8 1 -15 8
-15 7 0 9 -3 6 -7 -4 -3 -2 -12 4 -20 6 -7 8 -13 4 -13 -4 0 -2 -7 5 -15 7 -8
9 -15 5 -15 -4 0 -2 -7 5 -15 7 -8 9 -15 5 -15 -4 0 -2 -7 5 -15 7 -8 9 -15 5
-15 -4 0 -2 -7 5 -15 7 -8 9 -15 5 -15 -4 0 -2 -6 4 -13 6 -8 8 -17 4 -20 -3
-4 -1 -7 5 -7 6 0 9 -7 6 -15 -4 -8 -1 -15 5 -15 6 0 8 -6 5 -14 -3 -8 0 -17
5 -21 6 -3 9 -11 6 -16 -4 -5 -2 -9 4 -9 6 0 8 -7 5 -15 -4 -8 -1 -15 5 -15 6
0 8 -7 5 -15 -4 -8 -1 -15 5 -15 6 0 8 -7 5 -15 -4 -8 -1 -15 5 -15 6 0 8 -7
5 -15 -4 -8 -1 -15 6 -15 6 0 8 -5 5 -10 -4 -6 -2 -16 3 -23 10 -12 12 -18 12
-37 0 -17 237 -11 251 6 6 8 8 14 4 14 -4 0 -2 7 5 15 7 8 9 15 5 15 -4 0 -2
7 5 15 7 8 9 15 5 15 -4 0 -2 6 4 13 6 8 8 17 4 20 -3 4 0 13 7 22 7 8 9 15 5
15 -4 0 -2 7 5 15 7 8 9 15 5 15 -4 0 -3 6 3 13 6 6 11 15 11 20 1 4 1 8 2 10
0 1 2 13 5 26 2 14 9 30 15 38 6 7 8 13 4 13 -4 0 -2 6 4 13 6 8 8 17 4 20 -3
4 0 13 7 22 7 8 9 15 5 15 -4 0 -2 7 5 15 7 8 9 15 5 15 -4 0 -2 7 5 15 7 8 9
15 5 15 -4 0 -2 7 5 15 7 8 9 15 5 15 -4 0 -2 7 5 15 7 8 9 15 5 15 -4 0 -2 7
5 15 7 8 9 15 5 15 -4 0 -2 7 5 15 7 8 9 15 5 15 -4 0 -2 7 5 15 7 8 9 15 4
15 -4 0 -3 5 3 11 6 6 9 17 7 24 -3 7 -1 16 5 20 6 3 12 -1 12 -9 2 -17 5 -33
9 -41 1 -3 4 -9 5 -15 1 -5 4 -12 5 -15 1 -3 4 -9 5 -15 1 -5 4 -12 5 -15 1
-3 4 -9 5 -15 1 -5 4 -12 5 -15 1 -3 4 -9 5 -15 1 -5 4 -12 5 -15 1 -3 4 -9 5
-15 1 -5 4 -12 5 -15 1 -3 4 -9 5 -15 1 -5 4 -12 5 -15 1 -3 4 -9 5 -15 1 -5
4 -12 5 -15 1 -3 4 -9 5 -15 1 -5 4 -12 5 -15 1 -3 3 -8 5 -12 1 -5 5 -15 8
-23 4 -8 8 -24 10 -35 1 -11 6 -26 10 -32 5 -7 5 -13 1 -13 -3 0 -1 -7 6 -15
7 -8 9 -15 5 -15 -4 0 -2 -7 5 -15 7 -8 9 -15 5 -15 -4 0 -2 -7 5 -15 7 -8 9
-15 5 -15 -4 0 -2 -7 5 -15 7 -8 9 -15 5 -15 -4 0 -2 -7 5 -15 7 -8 9 -15 5
-15 -4 0 -2 -6 4 -14 6 -7 12 -25 13 -40 3 -35 18 -38 154 -34 97 3 109 5 108
21 -1 9 3 17 8 17 6 0 8 7 4 15 -3 8 -1 15 5 15 6 0 9 7 5 15 -3 8 -1 15 5 15
6 0 8 9 4 20 -4 11 -2 20 4 20 6 0 8 7 5 15 -4 8 -1 15 5 15 6 0 8 7 5 15 -4
8 -1 15 5 15 6 0 8 7 5 15 -4 8 -1 15 5 15 6 0 8 7 5 15 -4 8 -1 15 5 15 6 0
8 7 5 15 -4 8 -1 15 6 15 6 0 9 4 5 9 -3 5 -1 12 5 16 6 4 8 11 5 16 -4 5 -1
9 5 9 7 0 10 7 6 15 -3 8 -1 15 5 15 6 0 9 7 5 15 -3 8 -1 15 5 15 6 0 9 7 5
15 -3 8 -1 15 5 15 6 0 9 7 6 15 -4 8 -2 17 4 20 5 4 7 10 4 15 -3 5 -1 11 5
15 6 4 8 10 5 15 -3 5 -1 11 5 15 6 4 8 10 5 15 -3 5 -1 11 5 15 6 4 8 11 5
16 -4 5 -1 9 5 9 7 0 10 7 6 15 -3 8 -1 15 5 15 6 0 9 7 6 15 -4 8 -2 17 4 20
5 4 7 11 4 16 -4 5 -1 9 5 9 7 0 10 7 7 15 -4 8 -2 17 4 20 5 4 7 11 4 16 -4
5 -1 9 5 9 7 0 10 7 6 15 -3 8 -1 15 5 15 6 0 9 7 5 15 -3 8 -1 15 5 15 6 0 9
7 5 15 -3 8 -1 15 5 15 6 0 9 7 5 15 -3 8 -1 15 5 15 6 0 9 7 5 15 -3 8 -1 15
4 15 5 0 7 7 4 15 -4 8 -1 15 5 15 6 0 8 7 5 15 -4 8 -1 15 6 15 6 0 9 4 5 9
-3 5 -1 12 5 16 6 4 8 11 5 16 -7 11 -210 10 -245 -1 -14 -4 -21 -8 -16 -9 5
-1 3 -8 -4 -16 -7 -8 -9 -15 -5 -15 4 0 2 -7 -5 -15 -7 -8 -9 -15 -5 -15 4 0
2 -6 -4 -13 -6 -8 -8 -17 -4 -20 3 -4 0 -13 -7 -22 -7 -8 -9 -15 -4 -15 4 0 3
-5 -3 -11 -6 -6 -9 -18 -6 -25 3 -8 0 -14 -7 -14 -7 0 -10 -7 -7 -15 4 -8 2
-17 -4 -20 -5 -4 -7 -10 -4 -15 3 -5 1 -11 -5 -15 -6 -4 -8 -10 -5 -15 3 -5 1
-11 -5 -15 -6 -4 -8 -11 -4 -16 3 -5 0 -16 -6 -24 -7 -8 -9 -15 -5 -15 4 0 3
-6 -3 -12 -6 -7 -11 -16 -11 -20 -1 -5 -1 -9 -2 -10 0 -2 -3 -12 -5 -23 -8
-33 -12 -50 -14 -52 -2 -2 -4 -7 -5 -13 -1 -5 -4 -13 -5 -17 -1 -5 -2 -11 -1
-15 0 -4 -4 -20 -11 -35 -6 -15 -12 -31 -13 -35 -2 -5 -4 -10 -5 -13 -1 -3 -4
-9 -5 -15 -1 -5 -4 -12 -5 -15 -1 -3 -3 -9 -4 -15 0 -5 -5 -9 -11 -7 -5 1 -9
8 -9 15 1 6 -2 12 -7 12 -5 0 -6 6 -3 14 3 8 0 17 -5 21 -6 3 -9 10 -6 15 3 5
1 11 -4 15 -6 3 -8 12 -4 20 3 8 0 15 -6 15 -6 0 -8 7 -5 15 4 8 1 15 -6 15
-6 0 -9 4 -6 9 4 5 1 22 -6 38 -6 15 -12 31 -13 36 -2 4 -4 9 -5 12 -1 3 -4
10 -5 15 -1 6 -4 12 -5 15 -1 3 -3 9 -4 14 0 5 -4 12 -8 16 -4 4 -4 13 -1 21
3 8 0 14 -6 14 -6 0 -8 7 -5 15 4 8 1 15 -6 15 -7 0 -10 6 -7 14 3 7 0 19 -6
25 -6 6 -7 11 -3 11 5 0 3 7 -4 15 -7 8 -9 15 -5 15 4 0 2 7 -5 15 -7 8 -9 15
-5 15 4 0 2 7 -5 15 -7 8 -9 15 -5 15 4 0 2 7 -5 15 -7 8 -9 15 -5 15 4 0 2 6
-4 13 -6 8 -8 17 -4 20 3 4 0 13 -7 22 -7 8 -9 15 -5 15 4 0 3 6 -3 13 -24 28
-254 15 -237 -13 3 -5 1 -11 -5 -15 -6 -4 -8 -10 -5 -15 3 -5 1 -11 -5 -15 -6
-4 -8 -10 -5 -15 3 -5 1 -11 -5 -15 -6 -4 -8 -11 -4 -16 3 -5 0 -16 -6 -24 -7
-8 -9 -15 -5 -15 4 0 2 -7 -5 -15 -7 -8 -9 -15 -5 -15 4 0 2 -7 -5 -15 -7 -8
-9 -15 -5 -15 4 0 3 -6 -3 -12 -6 -7 -11 -16 -11 -20 -1 -5 -1 -9 -2 -10 0 -2
-2 -11 -5 -20 -2 -10 -6 -26 -8 -35 -3 -10 -5 -19 -6 -20 -2 -2 -4 -7 -5 -13
-1 -5 -4 -12 -5 -15 -1 -3 -4 -9 -5 -15 -1 -5 -4 -12 -5 -15 -1 -3 -4 -9 -5
-15 -1 -5 -4 -12 -5 -15 -1 -3 -3 -9 -4 -14 0 -5 -4 -12 -8 -16 -4 -4 -4 -13
-1 -21 3 -8 0 -14 -7 -14 -7 0 -10 -7 -7 -15 4 -8 2 -17 -4 -20 -5 -4 -7 -10
-4 -15 3 -5 1 -11 -5 -15 -6 -4 -8 -10 -5 -15 3 -5 1 -11 -5 -15 -6 -4 -8 -10
-5 -15 3 -5 1 -11 -5 -15 -5 -3 -10 -17 -10 -31 0 -15 -4 -23 -11 -19 -6 4 -8
13 -5 20 2 7 2 16 -2 20 -4 4 -8 11 -8 16 -1 5 -2 10 -4 12 -1 1 -4 11 -6 22
-8 33 -12 50 -14 53 -2 1 -4 7 -5 12 -1 6 -4 12 -5 15 -1 3 -4 10 -5 15 -1 6
-3 11 -5 13 -1 1 -3 10 -6 20 -2 9 -6 25 -8 35 -3 9 -5 18 -6 20 -2 1 -4 7 -5
12 -1 6 -4 12 -5 15 -1 3 -4 10 -5 15 -1 6 -3 11 -5 13 -2 2 -6 19 -14 52 -2
11 -5 21 -6 23 -2 1 -4 7 -5 12 -1 6 -4 12 -5 15 -1 3 -4 10 -5 15 -1 6 -3 11
-5 13 -1 2 -6 20 -13 50 -1 6 -6 18 -10 25 -5 6 -5 12 -1 12 3 0 1 7 -6 15 -7
8 -9 15 -5 15 4 0 2 7 -5 15 -6 8 -9 19 -6 24 4 5 2 12 -4 16 -6 4 -8 10 -5
15 3 4 -1 10 -8 13 -16 6 -245 6 -251 0z M5339 1906 c-2 -2 -24 -6 -49 -9 -25
-3 -46 -6 -47 -6 -2 -1 -3 -219 -3 -486 l0 -484 128 1 127 2 0 485 0 486 -40
7 c-46 7 -110 10 -116 4z M9255 1900 c11 -5 27 -9 35 -9 9 0 8 4 -5 9 -11 5
-27 9 -35 9 -9 0 -8 -4 5 -9z M10258 1903 c12 -2 32 -2 45 0 12 2 2 4 -23 4
-25 0 -35 -2 -22 -4z M7940 1890 c-8 -5 -10 -10 -5 -10 6 0 17 5 25 10 8 5 11
10 5 10 -5 0 -17 -5 -25 -10z M9955 1410 c0 -272 1 -384 2 -247 2 136 2 358 0
495 -1 136 -2 24 -2 -248z M10125 1410 c0 -272 1 -384 2 -247 2 136 2 358 0
495 -1 136 -2 24 -2 -248z M10352 1835 l-2 -69 40 39 c22 21 40 41 40 44 0 3
-16 -10 -34 -28 l-35 -34 -4 59 -3 59 -2 -70z M10473 1880 c-46 -27 -41 -34 5
-8 46 27 48 28 36 28 -5 0 -24 -9 -41 -20z M10801 1896 c10 -9 69 -36 69 -32
0 6 -55 36 -66 36 -4 0 -5 -2 -3 -4z M6748 1869 c-21 -11 -38 -22 -38 -24 0
-5 79 32 89 41 12 11 -18 1 -51 -17z M7259 1860 c30 -17 64 -38 75 -48 20 -16
20 -16 6 1 -15 20 -108 77 -125 77 -5 0 14 -14 44 -30z M8300 1869 c19 -12 53
-37 75 -57 28 -26 33 -29 15 -8 -30 34 -98 86 -114 86 -6 0 5 -9 24 -21z
M9311 1886 c10 -9 69 -36 69 -32 0 6 -55 36 -66 36 -4 0 -5 -2 -3 -4z M8798
1859 c-21 -11 -38 -22 -38 -24 0 -5 79 32 89 41 12 11 -18 1 -51 -17z M9712
1398 c-1 -263 1 -478 6 -478 6 0 6 349 -1 785 -1 94 -4 -45 -5 -307z M9454
1787 c16 -20 30 -37 33 -37 7 0 -36 58 -49 66 -7 4 1 -9 16 -29z M6615 1768
l-40 -43 43 40 c39 36 47 45 39 45 -2 0 -21 -19 -42 -42z M7375 1780 c10 -11
20 -20 23 -20 3 0 -3 9 -13 20 -10 11 -20 20 -23 20 -3 0 3 -9 13 -20z M7411
1733 c7 -12 15 -20 18 -17 3 2 -3 12 -13 22 -17 16 -18 16 -5 -5z M9003 1713
c9 -2 25 -2 35 0 9 3 1 5 -18 5 -19 0 -27 -2 -17 -5z M9123 1713 c9 -2 23 -2
30 0 6 3 -1 5 -18 5 -16 0 -22 -2 -12 -5z M6953 1703 c9 -2 23 -2 30 0 6 3 -1
5 -18 5 -16 0 -22 -2 -12 -5z M7043 1703 c9 -2 23 -2 30 0 6 3 -1 5 -18 5 -16
0 -22 -2 -12 -5z M7384 1688 l-19 -23 23 19 c12 11 22 21 22 23 0 8 -8 2 -26
-19z M7988 1703 c6 -2 18 -2 25 0 6 3 1 5 -13 5 -14 0 -19 -2 -12 -5z M8068
1703 c6 -2 18 -2 25 0 6 3 1 5 -13 5 -14 0 -19 -2 -12 -5z M10538 1703 c6 -2
18 -2 25 0 6 3 1 5 -13 5 -14 0 -19 -2 -12 -5z M10618 1703 c6 -2 18 -2 25 0
6 3 1 5 -13 5 -14 0 -19 -2 -12 -5z M9510 1695 c0 -5 5 -17 10 -25 5 -8 10
-10 10 -5 0 6 -5 17 -10 25 -5 8 -10 11 -10 5z M7121 1686 c2 -2 15 -9 29 -15
24 -11 24 -11 6 3 -16 13 -49 24 -35 12z M7899 1669 l-24 -20 30 17 c39 24 40
24 28 24 -6 0 -21 -9 -34 -21z M11015 1674 c3 -12 10 -42 15 -65 l9 -44 -4 48
c-3 27 -10 56 -15 65 -9 14 -10 14 -5 -4z M9261 1655 c9 -11 21 -29 27 -40 6
-11 12 -14 12 -8 0 7 -12 25 -27 41 -16 15 -21 19 -12 7z M7334 1648 l-19 -23
23 19 c12 11 22 21 22 23 0 8 -8 2 -26 -19z M7217 1620 l43 -45 22 25 23 24
-23 -19 c-22 -19 -23 -18 -65 21 l-42 39 42 -45z M10414 1638 l-19 -23 23 19
c21 18 27 26 19 26 -2 0 -12 -10 -23 -22z M8783 1635 c17 -19 17 -19 35 0 16
18 16 18 0 6 -15 -11 -21 -11 -35 0 -17 12 -17 12 0 -6z M9532 1630 c0 -14 2
-19 5 -12 2 6 2 18 0 25 -3 6 -5 1 -5 -13z M6773 1598 c-15 -20 -25 -38 -20
-38 3 0 12 11 21 25 17 26 16 35 -1 13z M9544 1260 c0 -190 2 -267 3 -172 2
94 2 250 0 345 -1 94 -3 17 -3 -173z M11044 1240 c0 -179 2 -252 3 -162 2 89
2 235 0 325 -1 89 -3 16 -3 -163z M6736 1535 c-3 -9 -6 -22 -5 -28 0 -7 5 -1
10 12 5 13 8 26 5 28 -2 2 -6 -3 -10 -12z M8494 1235 c0 -176 2 -247 3 -157 2
90 2 234 0 320 -1 86 -3 13 -3 -163z M7804 1225 c0 -170 2 -242 3 -158 2 83 2
223 0 310 -1 87 -3 19 -3 -152z M8890 1520 c-16 -6 -6 -7 30 -3 30 3 57 7 59
9 8 7 -64 2 -89 -6z M9152 1520 c37 -4 82 -11 100 -14 29 -5 30 -5 9 4 -13 6
-58 12 -100 15 l-76 4 67 -9z M8254 1220 c0 -168 2 -236 3 -152 2 83 2 221 0
305 -1 83 -3 15 -3 -153z M10804 1220 c0 -168 2 -236 3 -152 2 83 2 221 0 305
-1 83 -3 15 -3 -153z M8820 1500 c-18 -12 -2 -12 25 0 13 6 15 9 5 9 -8 0 -22
-4 -30 -9z M6722 1470 c0 -14 2 -19 5 -12 2 6 2 18 0 25 -3 6 -5 1 -5 -13z
M8749 1459 l-24 -20 28 17 c15 9 27 18 27 20 0 8 -8 4 -31 -17z M6473 1415 c0
-27 2 -38 4 -22 2 15 2 37 0 50 -2 12 -4 0 -4 -28z M6722 1350 c0 -14 2 -19 5
-12 2 6 2 18 0 25 -3 6 -5 1 -5 -13z M9058 1363 c12 -2 32 -2 45 0 12 2 2 4
-23 4 -25 0 -35 -2 -22 -4z M9193 1353 c9 -2 23 -2 30 0 6 3 -1 5 -18 5 -16 0
-22 -2 -12 -5z M9310 1297 c4 -41 5 -41 8 -8 2 18 0 37 -5 42 -5 5 -6 -11 -3
-34z M8870 1281 c-16 -31 -12 -93 10 -128 11 -18 22 -33 25 -33 2 0 -4 15 -15
33 -22 35 -26 97 -10 128 6 10 8 19 6 19 -3 0 -10 -9 -16 -19z M8623 1220 c0
-25 2 -35 4 -22 2 12 2 32 0 45 -2 12 -4 2 -4 -23z M9292 1218 c-10 -30 -10
-31 3 -14 13 17 21 46 12 46 -1 0 -8 -15 -15 -32z M6795 1200 c10 -11 20 -20
23 -20 3 0 -3 9 -13 20 -10 11 -20 20 -23 20 -3 0 3 -9 13 -20z M6836 1169 c6
-11 64 -42 69 -37 2 2 -14 13 -36 25 -21 12 -37 17 -33 12z M9249 1153 l-24
-28 28 24 c25 23 32 31 24 31 -2 0 -14 -12 -28 -27z M7406 1128 c10 -14 21
-24 23 -22 3 3 -6 15 -18 27 l-24 22 19 -27z M6988 1113 c12 -2 32 -2 45 0 12
2 2 4 -23 4 -25 0 -35 -2 -22 -4z M9170 1110 c-8 -5 -10 -10 -5 -10 6 0 17 5
25 10 8 5 11 10 5 10 -5 0 -17 -5 -25 -10z M7375 1048 l-40 -43 43 40 c39 36
47 45 39 45 -2 0 -21 -19 -42 -42z M9023 1083 c15 -2 39 -2 55 0 15 2 2 4 -28
4 -30 0 -43 -2 -27 -4z M9284 1008 l-19 -23 23 19 c12 11 22 21 22 23 0 8 -8
2 -26 -19z M6918 903 c6 -2 18 -2 25 0 6 3 1 5 -13 5 -14 0 -19 -2 -12 -5z
M7068 903 c6 -2 18 -2 25 0 6 3 1 5 -13 5 -14 0 -19 -2 -12 -5z M8908 903 c6
-2 18 -2 25 0 6 3 1 5 -13 5 -14 0 -19 -2 -12 -5z M1970 537 c0 -18 5 -22 33
-22 l32 0 3 -93 c2 -82 5 -93 20 -90 15 3 17 16 17 96 l0 94 31 -4 c25 -3 30
0 27 13 -3 12 -21 18 -65 23 -94 9 -98 9 -98 -17z M2846 547 c-23 -15 -50 -39
-53 -49 -17 -49 8 -146 35 -141 7 2 12 -2 12 -8 0 -5 5 -7 10 -4 6 3 10 1 10
-4 0 -6 14 -11 30 -11 17 0 30 5 30 11 0 5 4 8 8 5 5 -3 19 2 31 10 17 13 20
19 10 30 -15 18 -27 18 -45 -1 -9 -8 -23 -15 -33 -15 -21 0 -64 34 -54 44 3 3
1 6 -5 6 -22 0 -13 50 13 72 23 20 75 32 75 17 0 -10 30 -20 40 -14 15 9 -1
42 -26 54 -31 14 -64 13 -88 -2z M3074 547 c-2 -7 -3 -58 -2 -113 l3 -99 60
-3 c59 -3 109 12 102 32 -2 5 -28 9 -60 7 -55 -2 -57 -2 -57 23 0 24 3 26 44
26 37 0 44 3 48 23 4 21 1 22 -44 19 -47 -4 -48 -3 -48 25 0 28 1 28 55 26 30
0 55 2 55 5 -1 21 -22 30 -83 36 -52 5 -69 4 -73 -7z M3640 554 c-1 -2 -1 -52
-1 -111 l-1 -108 56 -3 c38 -2 56 1 56 9 0 6 6 9 13 7 6 -3 19 3 27 12 16 17
22 60 8 60 -4 0 -7 6 -5 13 1 6 -4 11 -10 9 -15 -2 -18 15 -3 20 19 6 20 48 1
66 -10 9 -22 18 -28 19 -28 5 -113 11 -113 7z m100 -47 c0 -5 5 -5 10 -2 6 4
9 1 8 -7 -5 -24 -26 -38 -57 -38 -27 0 -31 3 -31 28 0 25 3 28 35 27 19 0 35
-4 35 -8z m27 -101 c12 -11 -31 -35 -64 -36 -30 0 -33 3 -33 28 0 28 1 29 45
22 25 -4 48 -10 52 -14z M3918 449 c-2 -61 1 -113 5 -116 4 -3 14 -2 22 1 23
8 22 211 -1 220 -9 3 -17 6 -19 6 -2 0 -5 -50 -7 -111z M4455 552 c-3 -3 -5
-13 -5 -22 0 -12 8 -15 35 -12 l35 4 0 -97 c0 -86 2 -96 18 -93 15 3 17 16 17
96 l0 94 31 -4 c26 -3 30 -1 26 17 -3 18 -12 20 -77 21 -41 1 -77 -1 -80 -4z
M5655 551 c-35 -4 -50 -11 -51 -21 -1 -11 8 -15 30 -14 l31 2 0 -91 c0 -79 2
-92 17 -95 15 -3 18 8 20 90 l3 93 33 3 c24 2 32 8 32 23 0 21 -14 22 -115 10z
M6763 546 c-31 -15 -33 -90 -3 -106 11 -6 20 -8 20 -4 0 3 7 1 15 -6 9 -7 18
-10 21 -7 4 3 13 0 21 -8 13 -13 13 -17 -1 -30 -17 -18 -56 -20 -56 -3 0 6 -3
8 -7 5 -3 -4 -11 -3 -17 3 -8 6 -16 2 -25 -12 -7 -11 -8 -17 -3 -14 6 3 13 -1
16 -10 4 -9 13 -14 21 -10 8 3 15 1 15 -4 0 -6 14 -10 30 -10 17 0 30 5 30 12
0 6 3 9 6 5 11 -11 39 26 39 52 0 23 -25 61 -40 61 -3 0 -7 1 -10 1 -3 1 -9 3
-15 4 -5 1 -12 4 -15 5 -3 1 -11 3 -17 4 -7 0 -13 10 -13 21 0 20 32 25 68 10
20 -8 30 -2 33 20 4 25 -75 39 -113 21z M7030 551 l-35 -6 -3 -95 c-2 -102 4
-125 32 -114 14 5 17 15 14 41 l-4 35 38 -6 c26 -4 38 -3 38 6 0 6 3 8 7 5 9
-9 34 13 27 24 -3 5 -2 9 3 9 4 0 8 14 8 30 0 17 -3 30 -7 30 -5 0 -7 6 -5 13
1 6 -4 11 -10 10 -7 -2 -13 2 -13 9 0 6 -3 9 -6 5 -3 -3 -16 -2 -28 2 -11 4
-37 5 -56 2z m57 -37 c27 -5 39 -39 21 -57 -7 -6 -25 -13 -39 -15 -24 -3 -27
0 -31 36 -3 41 3 46 49 36z M7312 548 c-7 -7 -12 -18 -12 -25 0 -7 -5 -13 -11
-13 -5 0 -7 -4 -4 -10 3 -5 1 -10 -5 -10 -6 0 -8 -4 -5 -10 3 -5 2 -10 -4 -10
-6 0 -8 -7 -5 -15 4 -8 1 -15 -6 -15 -6 0 -8 -4 -5 -10 3 -5 1 -10 -5 -10 -6
0 -9 -4 -5 -9 3 -5 1 -12 -5 -16 -6 -4 -8 -11 -5 -16 4 -5 2 -9 -2 -9 -5 0 -9
-9 -9 -20 0 -11 6 -20 13 -20 7 0 13 5 13 11 0 5 5 7 12 3 6 -4 8 -3 4 4 -3 6
-2 13 4 17 6 4 8 9 6 13 -2 4 20 7 49 7 29 0 51 -3 48 -7 -2 -5 1 -8 8 -8 7 0
10 -3 6 -6 -10 -11 22 -36 38 -30 17 6 20 26 4 26 -5 0 -7 5 -4 10 3 6 1 10
-5 10 -6 0 -9 4 -6 9 4 5 1 11 -4 13 -6 2 -12 13 -13 26 0 12 -5 22 -10 22 -4
0 -5 5 -2 10 3 6 1 10 -5 10 -6 0 -9 4 -5 9 3 5 1 12 -5 16 -6 4 -8 11 -5 16
4 5 1 9 -6 9 -7 0 -10 3 -6 6 3 4 0 13 -8 20 -17 17 -18 17 -33 2z m24 -74
c-3 -8 -1 -14 5 -14 6 0 7 -4 4 -10 -3 -5 -1 -10 4 -10 6 0 11 -4 11 -8 0 -4
-15 -7 -34 -7 -24 0 -31 3 -25 11 5 6 6 14 2 17 -3 4 -1 7 5 7 7 0 11 3 11 8
-3 20 2 32 12 27 6 -4 8 -13 5 -21z M7532 544 c-8 -9 -9 -14 -2 -14 7 0 11
-30 10 -87 -2 -113 -2 -113 9 -113 11 0 32 56 24 64 -4 3 3 6 15 6 12 0 24 0
27 0 3 0 6 -3 7 -7 0 -5 8 -13 17 -20 9 -7 12 -13 7 -13 -17 0 17 -30 35 -30
23 0 23 8 4 34 -17 22 -20 63 -6 68 8 3 15 51 12 86 -2 29 -136 51 -159 26z
m112 -38 c27 -28 5 -64 -40 -62 -27 1 -29 4 -29 36 0 32 2 36 29 37 16 0 34
-4 40 -11z M7805 548 c-3 -8 -4 -59 -3 -114 l3 -99 80 0 c68 0 80 3 83 18 3
15 -5 17 -57 17 -58 0 -61 1 -61 25 0 23 4 25 45 25 25 0 45 3 46 8 0 4 2 14
4 22 2 12 -8 15 -44 15 -43 0 -46 2 -49 28 l-3 29 55 -7 c53 -7 56 -6 56 14 0
16 -6 21 -29 21 -15 0 -49 3 -74 6 -36 5 -48 3 -52 -8z M8220 485 c0 -46 -4
-75 -11 -75 -5 0 -7 5 -4 10 3 6 -1 13 -9 16 -9 3 -16 12 -16 20 0 8 -5 14
-10 14 -6 0 -15 11 -20 25 -5 14 -14 25 -20 25 -5 0 -10 7 -10 16 0 10 -7 14
-22 12 -22 -3 -23 -8 -24 -97 -2 -102 1 -121 21 -121 13 0 30 114 19 131 -3 5
0 9 5 9 6 0 11 -7 11 -15 0 -9 7 -18 15 -21 8 -4 15 -13 15 -20 0 -8 7 -17 15
-20 8 -4 15 -11 15 -18 0 -18 40 -48 56 -42 11 4 14 29 14 110 0 101 -4 116
-36 116 -2 0 -4 -34 -4 -75z M8408 532 c-21 -16 -35 -32 -31 -36 3 -3 2 -6 -3
-6 -12 0 -11 -67 1 -95 14 -31 42 -58 54 -50 6 3 11 1 11 -4 0 -14 47 -14 55
-1 4 6 10 8 15 5 4 -3 11 2 14 11 3 8 10 13 14 10 5 -3 9 1 9 9 0 21 -26 27
-43 10 -21 -21 -45 -19 -74 8 -17 15 -25 33 -25 55 0 17 3 32 7 32 5 0 8 7 8
16 0 8 5 12 10 9 6 -3 10 -2 10 2 0 14 53 9 69 -5 11 -10 16 -10 26 5 11 15
10 20 -6 31 -39 27 -81 25 -121 -6z M9494 552 c-6 -4 -13 -14 -16 -22 -5 -13
1 -15 29 -12 l34 4 -2 -93 c-2 -86 0 -94 17 -94 18 0 19 7 15 94 l-3 93 36 -4
c37 -4 41 -1 28 18 -8 13 -122 26 -138 16z M10020 490 c0 -38 -2 -75 -5 -82
-6 -15 39 -71 49 -61 3 4 6 1 6 -5 0 -7 14 -12 30 -12 17 0 30 5 30 11 0 5 5
7 10 4 6 -3 10 -1 10 5 0 6 5 8 10 5 6 -3 10 1 10 9 0 9 4 16 8 16 4 0 9 38
11 85 2 80 1 85 -18 85 -18 0 -21 -6 -21 -47 0 -86 -10 -123 -35 -129 -43 -11
-60 21 -57 102 3 65 1 72 -18 77 -19 5 -20 1 -20 -63z M10327 545 c-12 -6 -22
-15 -22 -20 0 -6 -4 -16 -8 -22 -10 -16 33 -75 50 -69 7 3 13 1 13 -5 0 -6 7
-9 15 -5 8 3 15 1 15 -5 0 -6 5 -7 10 -4 6 3 10 -3 10 -13 0 -33 -48 -43 -74
-16 -9 8 -21 14 -28 12 -17 -6 -19 -38 -2 -38 8 0 14 -4 14 -10 0 -5 7 -7 15
-4 8 4 15 1 15 -5 0 -6 11 -11 25 -11 14 0 25 5 25 11 0 5 5 7 10 4 6 -3 10
-1 10 6 0 7 3 9 7 6 3 -4 12 5 20 19 10 20 10 30 2 40 -6 8 -8 14 -4 14 4 0 2
7 -5 15 -7 8 -16 13 -20 10 -5 -3 -11 -1 -15 5 -4 6 -10 8 -15 5 -5 -3 -11 -1
-15 5 -4 6 -11 8 -16 5 -8 -6 -9 -2 -9 23 0 9 50 23 50 13 0 -12 25 -9 36 4 8
7 6 15 -5 25 -8 8 -17 14 -18 13 -2 -2 -4 -2 -5 -2 -13 7 -64 3 -81 -6z
M10538 554 c-5 -4 -8 -15 -8 -24 0 -12 8 -15 33 -12 l32 3 3 -88 c3 -81 13
-116 28 -100 3 3 7 45 8 94 l1 88 33 3 c40 4 45 32 5 32 -16 0 -50 3 -78 6
-27 3 -53 3 -57 -2z M2237 543 c-3 -5 -5 -49 -5 -99 0 -78 2 -92 19 -102 17
-11 19 -9 19 22 0 30 3 34 30 38 19 3 30 0 30 -7 0 -19 44 -65 62 -65 18 0 18
32 0 38 -7 2 -12 10 -12 18 0 8 -5 14 -11 14 -6 0 -9 6 -6 13 2 6 10 11 16 9
6 -1 11 5 11 13 0 8 5 15 10 15 6 0 10 14 10 30 0 17 -5 30 -12 30 -6 0 -8 3
-5 7 4 3 -1 12 -11 19 -18 14 -138 19 -145 7z m117 -39 c19 -19 20 -25 3 -48
-20 -27 -81 -18 -85 12 -2 13 -1 30 2 38 7 19 61 18 80 -2z M2574 533 c-4 -10
-6 -21 -6 -25 1 -5 -3 -8 -9 -8 -5 0 -7 -4 -4 -10 3 -5 1 -10 -6 -10 -7 0 -9
-3 -6 -7 4 -3 -2 -20 -13 -38 -11 -18 -17 -35 -13 -38 3 -4 0 -7 -7 -7 -7 0
-11 -3 -7 -6 3 -3 2 -17 -3 -30 -8 -20 -6 -24 10 -24 17 0 36 21 39 43 1 4 3
7 6 7 3 0 25 0 50 0 39 0 47 -4 57 -25 6 -14 19 -25 29 -25 15 0 17 4 9 24 -5
13 -6 27 -3 30 4 3 1 6 -6 6 -7 0 -9 5 -6 10 3 6 1 10 -5 10 -6 0 -8 5 -5 10
3 6 1 10 -5 10 -6 0 -8 5 -5 10 3 6 2 10 -4 10 -6 0 -8 7 -5 15 4 8 1 15 -6
15 -6 0 -8 5 -5 10 3 6 2 10 -4 10 -6 0 -8 7 -5 15 4 8 1 15 -6 15 -6 0 -8 5
-5 10 3 6 -5 10 -18 10 -14 0 -28 -8 -33 -17z m36 -70 c1 -5 7 -11 13 -15 16
-10 -19 -22 -40 -14 -15 6 -15 8 -3 16 8 6 11 10 7 10 -5 0 -5 5 -2 11 7 10
21 6 25 -8z M3405 540 c3 -5 1 -10 -5 -10 -6 0 -8 -4 -5 -10 3 -5 1 -10 -5
-10 -6 0 -8 -4 -5 -10 3 -5 1 -10 -5 -10 -7 0 -10 -7 -6 -15 3 -8 1 -15 -5
-15 -6 0 -7 -4 -4 -10 3 -5 1 -10 -5 -10 -7 0 -10 -7 -6 -15 3 -8 1 -15 -5
-15 -6 0 -7 -4 -4 -10 3 -5 1 -10 -5 -10 -6 0 -8 -4 -5 -10 3 -5 2 -10 -2 -10
-5 0 -9 -9 -9 -20 0 -15 6 -20 21 -18 11 2 19 9 18 16 -2 6 2 12 8 12 5 0 8 4
5 9 -4 5 19 11 49 13 47 3 63 -2 53 -15 -7 -9 35 -38 47 -33 17 6 20 26 4 26
-5 0 -8 4 -4 9 3 5 1 12 -5 16 -6 4 -8 11 -5 16 4 5 1 9 -5 9 -6 0 -8 5 -5 10
3 6 1 10 -4 10 -6 0 -10 3 -9 8 1 4 -3 17 -10 28 -6 12 -8 24 -5 28 3 3 1 6
-6 6 -7 0 -9 5 -6 10 3 6 1 10 -5 10 -6 0 -9 4 -6 9 3 5 -1 12 -10 15 -24 9
-46 7 -39 -4z m39 -81 c-3 -6 -1 -15 4 -22 8 -9 2 -12 -23 -12 -33 0 -33 0
-19 27 9 18 20 25 29 22 8 -4 12 -10 9 -15z M4072 443 l3 -108 68 -3 c61 -3
67 -1 67 17 0 17 -8 20 -47 23 l-48 3 -3 88 c-3 79 -5 87 -23 87 -19 0 -20 -6
-17 -107z M4317 543 c-9 -8 -9 -176 -1 -197 5 -13 9 -14 20 -5 20 16 20 209 1
209 -8 0 -17 -3 -20 -7z M4696 535 c4 -8 10 -15 16 -15 5 0 6 -4 3 -10 -3 -5
-1 -10 5 -10 6 0 8 -4 5 -10 -3 -5 -2 -10 4 -10 6 0 13 -11 17 -25 3 -14 9
-25 13 -25 3 0 6 -21 6 -47 0 -37 4 -48 18 -51 14 -3 17 4 17 42 0 26 5 46 11
46 5 0 7 5 4 10 -3 6 -1 10 5 10 6 0 8 5 5 10 -3 6 -1 10 5 10 6 0 8 5 5 10
-3 6 1 13 9 16 9 3 13 10 10 15 -3 5 0 9 6 9 6 0 9 4 5 9 -3 6 3 14 12 20 15
9 13 10 -13 11 -26 0 -33 -5 -38 -25 -4 -14 -11 -25 -17 -25 -6 0 -7 -4 -4
-10 3 -5 1 -10 -5 -10 -6 0 -8 -4 -5 -10 3 -6 -1 -7 -9 -4 -9 3 -13 10 -10 15
3 5 0 9 -6 9 -6 0 -9 4 -5 9 3 6 -3 14 -12 20 -10 6 -13 11 -8 11 17 1 -19 20
-37 20 -11 0 -15 -5 -12 -15z M5879 549 c-6 -42 -9 -177 -5 -195 10 -38 36
-30 36 11 0 28 4 35 20 35 27 0 36 -3 33 -12 -2 -5 2 -8 7 -8 6 0 10 -5 10
-11 0 -13 25 -39 38 -39 20 0 18 24 -5 48 -23 24 -32 49 -14 38 27 -17 48 80
25 112 -8 11 -33 17 -78 20 -36 2 -66 3 -67 1z m106 -44 c28 -28 3 -63 -43
-61 -30 1 -32 4 -32 36 0 33 2 35 33 35 17 0 37 -4 42 -10z M6209 543 c-1 -5
-1 -11 0 -15 0 -5 -3 -8 -9 -8 -5 0 -9 -3 -8 -7 1 -5 -3 -18 -10 -29 -6 -12
-8 -24 -5 -28 3 -3 0 -6 -7 -6 -7 0 -10 -3 -7 -7 4 -3 -2 -20 -13 -38 -11 -18
-17 -35 -13 -38 3 -4 1 -7 -5 -7 -17 0 -15 -20 3 -26 19 -8 45 17 45 44 0 10
110 2 111 -9 1 -5 2 -15 3 -21 0 -7 11 -14 24 -16 20 -3 21 -1 13 21 -6 14 -7
28 -4 31 4 3 0 6 -7 6 -7 0 -10 3 -7 6 3 4 1 16 -5 28 -7 11 -11 24 -10 29 1
4 -2 7 -8 7 -5 0 -9 3 -8 8 1 4 -3 17 -10 28 -6 12 -8 24 -5 28 3 3 1 6 -6 6
-7 0 -9 5 -6 10 4 6 -5 10 -19 10 -14 0 -27 -3 -27 -7z m36 -74 c3 -13 9 -25
15 -27 22 -8 8 -17 -25 -17 -35 0 -44 8 -25 20 6 4 8 11 5 16 -4 5 -1 9 4 9 6
0 10 3 10 8 -6 34 10 26 16 -9z M6437 543 c-2 -5 -5 -52 -6 -106 -2 -82 0 -98
14 -103 25 -10 28 0 26 76 -1 44 2 70 8 70 6 0 11 -5 11 -10 0 -12 15 -32 43
-58 9 -9 17 -21 18 -27 0 -5 13 -20 29 -32 34 -28 35 -26 35 97 0 81 -2 95
-17 98 -15 3 -18 -7 -20 -70 -2 -54 -6 -68 -12 -53 -5 11 -16 24 -23 28 -7 5
-11 12 -8 18 4 5 -1 12 -9 15 -9 3 -16 11 -16 18 0 26 -62 59 -73 39z M8643
520 c6 -16 15 -30 20 -30 4 0 5 -4 2 -10 -3 -5 -2 -10 4 -10 12 0 30 -54 33
-102 1 -23 7 -38 15 -38 13 0 16 11 28 82 3 21 12 44 20 51 8 8 11 17 8 21 -4
3 -1 6 5 6 7 0 12 7 12 15 0 8 5 15 11 15 5 0 8 4 5 9 -4 5 0 12 6 14 7 3 -1
6 -19 6 -27 1 -33 -3 -43 -34 -8 -24 -18 -35 -31 -35 -10 0 -19 7 -19 15 0 8
-5 15 -12 15 -6 0 -9 3 -5 6 9 9 -18 34 -36 34 -13 0 -13 -5 -4 -30z M9730
445 c0 -88 3 -107 16 -112 20 -8 32 11 27 41 -4 20 0 24 26 28 16 2 28 1 25
-4 -3 -4 0 -8 5 -8 6 0 11 -4 11 -10 0 -15 33 -45 49 -45 20 0 26 24 7 31 -9
3 -16 12 -16 19 0 7 -5 15 -11 17 -5 2 1 17 15 33 32 37 33 59 3 89 -18 18
-35 23 -90 25 l-67 2 0 -106z m131 54 c12 -18 11 -22 -3 -41 -9 -11 -24 -14
-50 -11 -33 5 -38 8 -38 32 0 15 3 30 6 33 11 11 76 1 85 -13z M9186 475 c4
-11 7 -31 7 -45 -1 -20 0 -21 8 -7 7 11 5 25 -6 44 -9 16 -13 19 -9 8z M5298
398 c-10 -10 -14 -18 -9 -18 10 0 36 29 30 34 -2 1 -12 -6 -21 -16z" fill="#ffffff"/>
  <path d="M7570 1610 l0 -690 115 0 115 0 0 298 c0 337 4 363 68 425 94 92 255
89 339 -6 47 -53 53 -103 53 -427 l0 -290 116 0 115 0 -3 353 c-3 345 -4 353
-27 412 -33 83 -124 174 -205 204 -152 57 -307 28 -412 -76 l-44 -45 0 266 0
266 -115 0 -115 0 0 -690z M6868 1904 c-186 -45 -341 -201 -379 -382 -16 -79
-6 -213 21 -284 54 -144 165 -253 308 -301 148 -51 287 -45 417 17 83 39 192
134 182 158 -3 9 -39 41 -79 72 l-73 55 -40 -39 c-60 -59 -125 -84 -215 -84
-119 0 -215 58 -265 159 -28 56 -29 224 -1 275 52 99 154 160 265 160 80 0
142 -24 201 -77 l50 -45 79 64 c44 34 80 67 80 71 2 18 -99 104 -156 134 -111
60 -267 79 -395 47z M8956 1905 c-75 -16 -182 -62 -233 -101 l-33 -25 51 -75
c28 -41 53 -74 57 -72 141 73 167 82 253 86 170 8 259 -55 259 -183 0 -40 -3
-46 -17 -41 -95 30 -270 40 -371 22 -203 -36 -301 -144 -290 -320 11 -160 112
-260 291 -288 130 -20 267 17 354 96 22 20 42 36 44 36 2 0 4 -26 4 -57 l0
-58 108 -3 108 -3 -3 363 -3 363 -27 57 c-44 95 -121 158 -237 194 -67 22
-232 26 -315 9z m314 -559 l45 -11 -1 -54 c-3 -74 -39 -126 -119 -166 -51 -26
-71 -30 -140 -30 -129 0 -195 48 -195 144 0 41 32 90 72 112 53 29 233 31 338
5z M10565 1906 c-68 -17 -109 -40 -167 -93 l-48 -46 0 67 0 66 -110 0 -110 0
0 -490 0 -491 113 3 112 3 5 322 5 321 30 43 c41 58 119 99 190 99 97 0 161
-36 198 -109 21 -44 22 -58 25 -363 l3 -318 115 0 114 0 0 318 c0 347 -8 418
-55 498 -84 143 -252 211 -420 170z M9725 1888 c-3 -7 -4 -227 -3 -488 l3
-475 113 -3 112 -3 0 491 0 490 -110 0 c-79 0 -112 -4 -115 -12z M5234 492
c-51 -34 -29 -112 32 -112 21 0 54 37 54 60 0 40 -55 73 -86 52z M9100 480
c-11 -11 -20 -29 -20 -40 0 -23 33 -60 54 -60 46 0 75 44 55 83 -23 42 -57 49
-89 17z" fill="#f07a17"/>
  <path d="M9920 2300 c-49 -9 -100 -26 -100 -35 0 -2 12 0 26 5 40 16 42 11 4
-10 -41 -23 -54 -25 -44 -7 4 6 -7 -1 -24 -17 -32 -30 -41 -43 -22 -31 12 8
13 -1 1 -23 -8 -15 -5 -18 25 -17 19 1 44 11 57 22 37 33 52 39 31 11 -10 -14
-23 -23 -28 -20 -5 3 -6 -1 -1 -8 5 -8 4 -11 -2 -7 -6 4 -19 -3 -29 -16 -16
-18 -16 -19 -1 -8 9 7 17 10 17 5 0 -4 10 2 23 13 34 31 55 39 29 11 -12 -13
-19 -28 -15 -32 5 -4 1 -6 -7 -4 -8 2 -14 -2 -13 -9 2 -7 -6 -10 -17 -8 -11 2
-23 -1 -26 -7 -5 -7 -2 -8 6 -3 10 6 12 4 6 -10 -5 -14 -4 -16 7 -7 11 9 17 4
30 -23 9 -18 13 -35 9 -38 -9 -5 13 1 35 10 12 5 14 3 8 -7 -5 -9 -4 -11 4 -6
6 4 9 11 6 15 -4 8 31 46 43 46 4 0 5 6 4 14 -2 7 1 10 6 7 14 -9 35 49 27 76
-5 18 -4 20 4 8 9 -13 11 -12 11 5 0 11 10 36 22 55 12 19 23 40 24 45 2 13
-77 16 -136 5z M5264 2268 l-19 -23 23 19 c12 11 22 21 22 23 0 8 -8 2 -26
-19z M5222 2165 c0 -16 2 -22 5 -12 2 9 2 23 0 30 -3 6 -5 -1 -5 -18z M9711
2053 c-1 -35 3 -63 8 -63 4 0 6 24 4 53 -7 77 -11 81 -12 10z M9740 1989 c0
-5 11 -9 25 -9 14 0 25 2 25 4 0 2 -11 6 -25 8 -14 3 -25 1 -25 -3z M1878
1923 c6 -2 18 -2 25 0 6 3 1 5 -13 5 -14 0 -19 -2 -12 -5z M2048 1923 c6 -2
18 -2 25 0 6 3 1 5 -13 5 -14 0 -19 -2 -12 -5z M2928 1913 c6 -2 18 -2 25 0 6
3 1 5 -13 5 -14 0 -19 -2 -12 -5z M3118 1913 c6 -2 18 -2 25 0 6 3 1 5 -13 5
-14 0 -19 -2 -12 -5z M5490 1408 c-3 -268 -2 -484 3 -479 4 4 6 223 5 487 l-3
479 -5 -487z M1937 1733 c18 -2 50 -2 70 0 21 2 7 4 -32 4 -38 0 -55 -2 -38
-4z M5693 1693 c26 -2 67 -2 90 0 23 2 2 3 -48 3 -49 0 -68 -1 -42 -3z M6133
1693 c43 -2 110 -2 150 0 40 1 5 3 -78 3 -82 0 -115 -2 -72 -3z M1792 1640 c0
-14 2 -19 5 -12 2 6 2 18 0 25 -3 6 -5 1 -5 -13z M2893 1523 c9 -2 23 -2 30 0
6 3 -1 5 -18 5 -16 0 -22 -2 -12 -5z M3033 1523 c9 -2 23 -2 30 0 6 3 -1 5
-18 5 -16 0 -22 -2 -12 -5z M3003 1363 c9 -2 25 -2 35 0 9 3 1 5 -18 5 -19 0
-27 -2 -17 -5z M3237 1333 c6 -4 13 -22 16 -38 4 -27 5 -27 3 4 0 21 -7 36
-16 38 -10 3 -11 2 -3 -4z M2423 1210 c0 -25 2 -35 4 -22 2 12 2 32 0 45 -2
12 -4 2 -4 -23z M3194 1158 l-19 -23 23 19 c21 18 27 26 19 26 -2 0 -12 -10
-23 -22z M1978 1093 c12 -2 32 -2 45 0 12 2 2 4 -23 4 -25 0 -35 -2 -22 -4z
M2968 1083 c12 -2 32 -2 45 0 12 2 2 4 -23 4 -25 0 -35 -2 -22 -4z M2339 1013
l-24 -28 28 24 c15 14 27 26 27 28 0 8 -8 1 -31 -24z M2630 1005 c13 -14 26
-25 28 -25 3 0 -5 11 -18 25 -13 14 -26 25 -28 25 -3 0 5 -11 18 -25z M6138
903 c12 -2 32 -2 45 0 12 2 2 4 -23 4 -25 0 -35 -2 -22 -4z M2130 537 c0 -10
-11 -17 -32 -20 l-33 -4 33 -1 c31 -2 54 19 38 35 -3 4 -6 -1 -6 -10z M3914
450 c0 -58 1 -81 3 -52 2 28 2 76 0 105 -2 28 -3 5 -3 -53z M4114 465 l1 -90
45 -1 45 -1 -42 4 -42 4 -4 87 -3 87 0 -90z M4610 537 c0 -10 -11 -17 -32 -20
l-33 -4 33 -1 c31 -2 54 19 38 35 -3 4 -6 -1 -6 -10z M8208 480 c-2 -39 0 -70
5 -70 4 0 7 32 7 70 0 39 -2 70 -4 70 -2 0 -6 -32 -8 -70z M9473 535 c2 -14
11 -21 29 -23 27 -3 27 -5 31 -85 l3 -82 2 88 2 87 -29 0 c-20 0 -31 6 -35 18
-4 13 -4 13 -3 -3z M10013 480 c0 -41 2 -58 4 -37 2 20 2 54 0 75 -2 20 -4 3
-4 -38z M3634 445 c0 -55 1 -76 3 -47 2 29 2 74 0 100 -2 26 -3 2 -3 -53z
M5603 530 c2 -8 14 -16 28 -17 19 -1 20 -1 4 4 -11 3 -24 10 -28 17 -6 7 -7 6
-4 -4z M5872 505 c0 -16 2 -22 5 -12 2 9 2 23 0 30 -3 6 -5 -1 -5 -18z M7534
445 c0 -49 1 -71 3 -48 2 23 2 64 0 90 -2 26 -3 8 -3 -42z M2002 513 c27 -4
27 -6 31 -91 l3 -87 0 90 -1 90 -30 1 c-28 2 -28 2 -3 -3z M2274 506 c-3 -8
-4 -25 -2 -38 2 -18 10 -24 37 -26 18 -2 37 0 42 5 5 5 -9 7 -31 5 -39 -4 -40
-3 -40 26 0 27 4 31 33 35 l32 4 -33 1 c-20 1 -35 -3 -38 -12z M3671 493 c-1
-32 0 -33 37 -31 36 1 36 1 5 5 -26 3 -33 9 -36 31 -4 24 -4 24 -6 -5z M4482
513 c27 -4 27 -5 31 -91 l3 -87 2 93 2 92 -32 -1 c-30 -2 -31 -2 -6 -6z M5704
507 c-3 -8 -3 -49 -1 -93 l3 -79 2 87 2 87 33 4 32 4 -33 1 c-19 1 -35 -3 -38
-11z M6732 495 c0 -16 2 -22 5 -12 2 9 2 23 0 30 -3 6 -5 -1 -5 -18z M7058
513 c6 -2 18 -2 25 0 6 3 1 5 -13 5 -14 0 -19 -2 -12 -5z M7863 513 c9 -2 23
-2 30 0 6 3 -1 5 -18 5 -16 0 -22 -2 -12 -5z M9572 463 l2 -58 3 52 c4 47 6
52 31 56 25 4 24 4 -5 6 l-33 1 2 -57z M9774 506 c-3 -8 -4 -25 -1 -38 3 -18
5 -16 6 9 0 17 7 34 14 36 9 4 9 6 -1 6 -7 1 -15 -5 -18 -13z M10553 513 c9
-2 25 -2 35 0 9 3 1 5 -18 5 -19 0 -27 -2 -17 -5z M10634 507 c-3 -8 -3 -45
-1 -83 l3 -69 2 77 2 77 33 4 32 4 -33 1 c-19 1 -35 -3 -38 -11z M6032 480 c0
-14 2 -19 5 -12 2 6 2 18 0 25 -3 6 -5 1 -5 -13z M7152 480 c0 -14 2 -19 5
-12 2 6 2 18 0 25 -3 6 -5 1 -5 -13z M7692 475 c0 -16 2 -22 5 -12 2 9 2 23 0
30 -3 6 -5 -1 -5 -18z M6471 418 c1 -68 6 -61 11 15 2 26 0 47 -4 47 -5 0 -7
-28 -7 -62z M2782 445 c0 -16 2 -22 5 -12 2 9 2 23 0 30 -3 6 -5 -1 -5 -18z
M2822 445 c0 -16 2 -22 5 -12 2 9 2 23 0 30 -3 6 -5 -1 -5 -18z M3162 463 c33
-3 48 -9 52 -21 3 -12 4 -12 3 3 -2 17 -10 20 -52 21 l-50 1 47 -4z M7865 465
c23 -8 83 -10 79 -3 -3 4 -24 8 -47 7 -23 0 -37 -2 -32 -4z M3671 403 c-1 -32
0 -33 37 -31 36 1 36 1 5 5 -26 3 -33 9 -36 31 -4 24 -4 24 -6 -5z M4803 380
c0 -25 2 -35 4 -22 2 12 2 32 0 45 -2 12 -4 2 -4 -23z M6612 385 c0 -16 2 -22
5 -12 2 9 2 23 0 30 -3 6 -5 -1 -5 -18z M7043 403 c9 -2 23 -2 30 0 6 3 -1 5
-18 5 -16 0 -22 -2 -12 -5z M2272 370 c0 -19 2 -27 5 -17 2 9 2 25 0 35 -3 9
-5 1 -5 -18z M9772 380 c0 -14 2 -19 5 -12 2 6 2 18 0 25 -3 6 -5 1 -5 -13z
M2878 373 c6 -2 18 -2 25 0 6 3 1 5 -13 5 -14 0 -19 -2 -12 -5z M3143 373 c15
-2 39 -2 55 0 15 2 2 4 -28 4 -30 0 -43 -2 -27 -4z M6793 373 c9 -2 23 -2 30
0 6 3 -1 5 -18 5 -16 0 -22 -2 -12 -5z M7878 373 c18 -2 45 -2 60 0 15 2 0 4
-33 4 -33 0 -45 -2 -27 -4z M8458 373 c6 -2 18 -2 25 0 6 3 1 5 -13 5 -14 0
-19 -2 -12 -5z M10088 373 c6 -2 18 -2 25 0 6 3 1 5 -13 5 -14 0 -19 -2 -12
-5z M10358 373 c6 -2 18 -2 25 0 6 3 1 5 -13 5 -14 0 -19 -2 -12 -5z" fill="#4fb53b"/>
 </g>
</svg>
